<?xml version="1.0" encoding="UTF-8" standalone="no"?>
<!-- Created with Inkscape (http://www.inkscape.org/) -->

<svg
   xmlns:dc="http://purl.org/dc/elements/1.1/"
   xmlns:cc="http://creativecommons.org/ns#"
   xmlns:rdf="http://www.w3.org/1999/02/22-rdf-syntax-ns#"
   xmlns:svg="http://www.w3.org/2000/svg"
   xmlns="http://www.w3.org/2000/svg"
   xmlns:xlink="http://www.w3.org/1999/xlink"
   xmlns:sodipodi="http://sodipodi.sourceforge.net/DTD/sodipodi-0.dtd"
   xmlns:inkscape="http://www.inkscape.org/namespaces/inkscape"
   width="744.09448819"
   height="1052.3622047"
   id="svg2"
   version="1.1"
   inkscape:version="0.48.2 r9819"
   sodipodi:docname="cals.svg"
   inkscape:export-filename="C:\Users\manoj\Pictures\daily\mysketch book\cals.png"
   inkscape:export-xdpi="200"
   inkscape:export-ydpi="200">
  <sodipodi:namedview
     id="base"
     pagecolor="#ffffff"
     bordercolor="#666666"
     borderopacity="1.0"
     inkscape:pageopacity="0.0"
     inkscape:pageshadow="2"
     inkscape:zoom="0.24748738"
     inkscape:cx="364.66787"
     inkscape:cy="222.06714"
     inkscape:document-units="px"
     inkscape:current-layer="svg2"
     showgrid="false"
     inkscape:window-width="1366"
     inkscape:window-height="705"
     inkscape:window-x="-9"
     inkscape:window-y="-9"
     inkscape:window-maximized="1" />
  <defs
     id="defs4">
    <filter
       inkscape:collect="always"
       id="filter3920"
       x="-0.027200843"
       width="1.0544017"
       y="-1.1424354"
       height="3.2848707">
      <feGaussianBlur
         inkscape:collect="always"
         stdDeviation="3.4001054"
         id="feGaussianBlur3922" />
    </filter>
  </defs>
  <metadata
     id="metadata7">
    <rdf:RDF>
      <cc:Work
         rdf:about="">
        <dc:format>image/svg+xml</dc:format>
        <dc:type
           rdf:resource="http://purl.org/dc/dcmitype/StillImage" />
        <dc:title></dc:title>
      </cc:Work>
    </rdf:RDF>
  </metadata>
  <g
     id="layer1"
     inkscape:groupmode="layer"
     inkscape:label="Layer 1" />
  <g
     id="g4019"
     inkscape:export-filename="C:\Users\manoj\Pictures\daily\mysketch book\cals1png.png"
     inkscape:export-xdpi="200"
     inkscape:export-ydpi="200">
    <rect
       y="12.362183"
       x="11.428572"
       height="1031.4286"
       width="720"
       id="rect4894"
       style="fill:#0197fd;fill-opacity:1;fill-rule:nonzero;stroke:none" />
    <rect
       style="fill:#eeeeee;fill-opacity:1;fill-rule:nonzero;stroke:none"
       id="rect4896"
       width="170.90352"
       height="1031.4286"
       x="560.52502"
       y="12.362183" />
    <rect
       y="12.362183"
       x="651.95361"
       height="1031.4286"
       width="79.474945"
       id="rect4898"
       style="fill:#565248;fill-opacity:1;fill-rule:nonzero;stroke:none" />
    <rect
       y="150.75504"
       x="560.17853"
       height="35"
       width="171.24998"
       id="rect5160"
       style="fill:#0197fd;fill-opacity:0.42616032999999998;fill-rule:nonzero;stroke:none" />
    <rect
       style="fill:#0197fd;fill-opacity:0.42616032999999998;fill-rule:nonzero;stroke:none"
       id="rect5934"
       width="171.24998"
       height="35"
       x="560.17853"
       y="826.4693" />
    <rect
       y="602.18359"
       x="560.17853"
       height="35"
       width="171.24998"
       id="rect5932"
       style="fill:#0197fd;fill-opacity:0.42616032999999998;fill-rule:nonzero;stroke:none" />
    <rect
       style="fill:#0197fd;fill-opacity:0.42616032999999998;fill-rule:nonzero;stroke:none"
       id="rect5930"
       width="171.24998"
       height="35"
       x="560.17853"
       y="373.61218" />
    <flowRoot
       transform="matrix(1.0485324,0,0,1.0705926,-10.238895,-6.7187511)"
       style="font-size:24px;font-style:normal;font-variant:normal;font-weight:normal;font-stretch:normal;text-align:start;line-height:125%;letter-spacing:0px;word-spacing:0px;writing-mode:lr-tb;text-anchor:start;fill:#eeeeee;fill-opacity:1;stroke:none;font-family:TAU_Elango_Barathi;-inkscape-font-specification:TAU_Elango_Barathi"
       id="flowRoot4900"
       xml:space="preserve"><flowRegion
         id="flowRegion4902"><rect
           style="fill:#eeeeee;-inkscape-font-specification:TAU_Elango_Barathi;font-family:TAU_Elango_Barathi;font-weight:normal;font-style:normal;font-stretch:normal;font-variant:normal"
           y="30.087809"
           x="654.57886"
           height="1608.1628"
           width="222.23357"
           id="rect4904" /></flowRegion><flowPara
         id="flowPara4906">1</flowPara><flowPara
         id="flowPara4908">2</flowPara><flowPara
         id="flowPara4910">3</flowPara><flowPara
         id="flowPara4912">4</flowPara><flowPara
         id="flowPara4914">5</flowPara><flowPara
         id="flowPara4916">6</flowPara><flowPara
         id="flowPara4918">7</flowPara><flowPara
         id="flowPara4920">8</flowPara><flowPara
         id="flowPara4922">9</flowPara><flowPara
         id="flowPara4924">10</flowPara><flowPara
         id="flowPara4926">11</flowPara><flowPara
         id="flowPara4928">12</flowPara><flowPara
         id="flowPara4930">13</flowPara><flowPara
         id="flowPara4932">14</flowPara><flowPara
         id="flowPara4934">15</flowPara><flowPara
         id="flowPara4936">16</flowPara><flowPara
         id="flowPara4938">17</flowPara><flowPara
         id="flowPara4940">18</flowPara><flowPara
         id="flowPara4942">19</flowPara><flowPara
         id="flowPara4944">20</flowPara><flowPara
         id="flowPara4946">21</flowPara><flowPara
         id="flowPara4948">22</flowPara><flowPara
         id="flowPara4950">23</flowPara><flowPara
         id="flowPara4952">24</flowPara><flowPara
         id="flowPara4954">25</flowPara><flowPara
         id="flowPara4956">26</flowPara><flowPara
         id="flowPara4958">27</flowPara><flowPara
         id="flowPara4960">28</flowPara><flowPara
         id="flowPara4962">29</flowPara><flowPara
         id="flowPara4964">30</flowPara><flowPara
         id="flowPara4966">31</flowPara></flowRoot>    <flowRoot
       xml:space="preserve"
       id="flowRoot4968"
       style="font-size:24px;font-style:normal;font-variant:normal;font-weight:normal;font-stretch:normal;text-align:start;line-height:125%;letter-spacing:0px;word-spacing:0px;writing-mode:lr-tb;text-anchor:start;fill:#d40000;fill-opacity:1;stroke:none;font-family:Vast Shadow;-inkscape-font-specification:Vast Shadow"
       transform="matrix(0.7485699,0,0,1.0705926,89.728805,-6.7187511)"><flowRegion
         id="flowRegion4970"><rect
           id="rect4972"
           width="222.23357"
           height="1608.1628"
           x="654.57886"
           y="30.087809"
           style="font-style:normal;font-variant:normal;font-weight:normal;font-stretch:normal;fill:#d40000;font-family:Vast Shadow;-inkscape-font-specification:Vast Shadow" /></flowRegion><flowPara
         id="flowPara5036">wed</flowPara><flowPara
         id="flowPara5040">thu</flowPara><flowPara
         id="flowPara5042">fri</flowPara><flowPara
         id="flowPara5044">sat</flowPara><flowPara
         id="flowPara5046">sun</flowPara><flowPara
         id="flowPara5048">mon </flowPara><flowPara
         id="flowPara5050">tue</flowPara><flowPara
         id="flowPara5052">wed</flowPara><flowPara
         id="flowPara5054">thu</flowPara><flowPara
         id="flowPara5056">fri</flowPara><flowPara
         id="flowPara5058">sat</flowPara><flowPara
         id="flowPara5060">sun</flowPara><flowPara
         id="flowPara5062">mon</flowPara><flowPara
         id="flowPara5064">tue</flowPara><flowPara
         id="flowPara5066">wed</flowPara><flowPara
         id="flowPara5068">thu</flowPara><flowPara
         id="flowPara5070">fri</flowPara><flowPara
         id="flowPara5072">sat</flowPara><flowPara
         id="flowPara5074">sun</flowPara><flowPara
         id="flowPara5076">mon</flowPara><flowPara
         id="flowPara5078">tue</flowPara><flowPara
         id="flowPara5080">wed</flowPara><flowPara
         id="flowPara5082">thu</flowPara><flowPara
         id="flowPara5084">fri</flowPara><flowPara
         id="flowPara5086">sat</flowPara><flowPara
         id="flowPara5088">sun</flowPara><flowPara
         id="flowPara5090">mon</flowPara><flowPara
         id="flowPara5092">tue</flowPara><flowPara
         id="flowPara5094">wed</flowPara><flowPara
         id="flowPara5096">thu</flowPara><flowPara
         id="flowPara5034">fri</flowPara></flowRoot>    <path
       transform="translate(34.345186,-10.101525)"
       sodipodi:open="true"
       sodipodi:end="7.0034029"
       sodipodi:start="0.72801893"
       d="m 394.41717,633.95816 a 157.5838,157.5838 0 1 1 0.81442,-0.92089"
       sodipodi:ry="157.5838"
       sodipodi:rx="157.5838"
       sodipodi:cy="529.10315"
       sodipodi:cx="276.7818"
       id="path3856"
       style="fill:#ffffff;fill-opacity:1;fill-rule:nonzero;stroke:none"
       sodipodi:type="arc" />
    <path
       sodipodi:type="arc"
       style="fill:#e9ddaf;fill-opacity:1;fill-rule:nonzero;stroke:none"
       id="path3858"
       sodipodi:cx="276.7818"
       sodipodi:cy="529.10315"
       sodipodi:rx="157.5838"
       sodipodi:ry="157.5838"
       d="m 394.41717,633.95816 a 157.5838,157.5838 0 1 1 0.81442,-0.92089"
       sodipodi:start="0.72801893"
       sodipodi:end="7.0034029"
       sodipodi:open="true"
       transform="matrix(0.93927586,0,0,0.93927586,51.152529,22.027812)" />
    <path
       transform="matrix(0.3837109,0,0,0.3837109,204.92285,315.97899)"
       sodipodi:open="true"
       sodipodi:end="7.0034029"
       sodipodi:start="0.72801893"
       d="m 394.41717,633.95816 a 157.5838,157.5838 0 1 1 0.81442,-0.92089"
       sodipodi:ry="157.5838"
       sodipodi:rx="157.5838"
       sodipodi:cy="529.10315"
       sodipodi:cx="276.7818"
       id="path3860"
       style="fill:#28220b;fill-opacity:1;fill-rule:nonzero;stroke:none"
       sodipodi:type="arc" />
    <g
       transform="matrix(-0.25214104,-0.9676905,0.9676905,-0.25214104,10.781341,544.13222)"
       id="g3866">
      <path
         sodipodi:type="star"
         style="fill:#ffffff;fill-opacity:1;fill-rule:nonzero;stroke:none"
         id="path3862"
         sodipodi:sides="4"
         sodipodi:cx="214.15234"
         sodipodi:cy="321.01175"
         sodipodi:r1="152.11435"
         sodipodi:r2="110.8319"
         sodipodi:arg1="2.6125622"
         sodipodi:arg2="3.3979604"
         inkscape:flatsided="false"
         inkscape:rounded="-0.03"
         inkscape:randomized="0"
         d="m 82.832512,397.78334 c 1.629324,2.787 24.928808,-107.99791 24.110208,-104.87509 -0.8186,3.12281 33.22503,-104.84566 30.43803,-103.21633 -2.787,1.62932 107.99791,24.92881 104.87509,24.1102 -3.12281,-0.8186 104.84566,33.22504 103.21634,30.43804 -1.62933,-2.787 -24.92881,107.9979 -24.11021,104.87509 0.8186,-3.12281 -33.22504,104.84565 -30.43804,103.21633 2.78701,-1.62932 -107.9979,-24.92881 -104.87509,-24.11021 3.12282,0.81861 -104.845652,-33.22503 -103.216328,-30.43803 z"
         transform="matrix(0.55090494,0,0,0.55090494,275.98191,27.997252)" />
      <path
         transform="matrix(0.46376709,0,0,0.46376709,294.64268,55.969525)"
         d="m 82.832512,397.78334 c 1.629324,2.787 24.928808,-107.99791 24.110208,-104.87509 -0.8186,3.12281 33.22503,-104.84566 30.43803,-103.21633 -2.787,1.62932 107.99791,24.92881 104.87509,24.1102 -3.12281,-0.8186 104.84566,33.22504 103.21634,30.43804 -1.62933,-2.787 -24.92881,107.9979 -24.11021,104.87509 0.8186,-3.12281 -33.22504,104.84565 -30.43804,103.21633 2.78701,-1.62932 -107.9979,-24.92881 -104.87509,-24.11021 3.12282,0.81861 -104.845652,-33.22503 -103.216328,-30.43803 z"
         inkscape:randomized="0"
         inkscape:rounded="-0.03"
         inkscape:flatsided="false"
         sodipodi:arg2="3.3979604"
         sodipodi:arg1="2.6125622"
         sodipodi:r2="110.8319"
         sodipodi:r1="152.11435"
         sodipodi:cy="321.01175"
         sodipodi:cx="214.15234"
         sodipodi:sides="4"
         id="path3864"
         style="fill:#ff0000;fill-opacity:1;fill-rule:nonzero;stroke:none"
         sodipodi:type="star" />
    </g>
    <flowRoot
       transform="matrix(1.4715777,-0.02585832,0.02585832,1.4715777,-354.10325,-73.694896)"
       style="font-size:24px;font-style:normal;font-variant:normal;font-weight:bold;font-stretch:normal;text-align:start;line-height:125%;letter-spacing:0px;word-spacing:0px;writing-mode:lr-tb;text-anchor:start;fill:#ffffff;fill-opacity:1;stroke:none;font-family:NightBits;-inkscape-font-specification:NightBits Bold"
       id="flowRoot3838"
       xml:space="preserve"><flowRegion
         id="flowRegion3840"><rect
           style="font-style:normal;font-variant:normal;font-weight:bold;font-stretch:normal;fill:#ffffff;font-family:NightBits;-inkscape-font-specification:NightBits Bold"
           y="117.71933"
           x="288.57144"
           height="44.285713"
           width="104.64286"
           id="rect3842" /></flowRegion><flowPara
         id="flowPara3844">2014</flowPara></flowRoot>    <g
       style="fill:#784421"
       transform="matrix(1.1166305,0.23194167,-0.22360987,1.076519,95.500692,-54.91535)"
       id="g3870">
      <path
         style="fill:#784421;fill-opacity:1;fill-rule:nonzero;stroke:none"
         d="m 232.53788,643.97226 c -15.56464,-5.97475 -16.54795,-19.13785 -23.99762,-33.22212 -7.19288,-13.59877 -18.20329,-24.56474 -22.46402,-27.01561 -3.38284,-1.94591 10.49423,-8.27573 24.71442,10.23998 3.64896,4.7512 13.06193,6.01683 14.99489,0.0766 8.43232,-25.91321 36.54837,-76.5757 59.41138,-62.04815 8.62763,5.48212 19.9415,13.59947 26.06077,24.46898 2.05869,3.65681 3.52944,7.62513 4.11215,11.9094 1.0094,7.42126 -12.55172,37.8276 -14.72949,47.57391 -8.32541,37.25946 -33.10215,49.87921 -55.24362,30.58161"
         id="path3065"
         inkscape:connector-curvature="0"
         sodipodi:nodetypes="cssssssssc" />
      <path
         style="fill:#784421;stroke:none"
         d="m 229.85111,634.58937 c 4.80558,5.89814 18.6087,6.20347 17.71954,4.92875 7.11602,5.84657 16.60449,9.23023 26.23943,8.30672 -8.43517,34.47648 -42.45057,135.74967 -50.57758,151.99814 -10.70973,-14.31162 -26.19415,-84.65919 -74.73996,-76.29803 20.34557,-10.28582 81.73972,-61.12968 81.35857,-88.93558 z"
         id="path3068"
         inkscape:connector-curvature="0"
         sodipodi:nodetypes="cccccc" />
    </g>
    <text
       transform="matrix(-1.217706,0.48566837,-0.5081498,-1.3146308,959.1264,1071.8555)"
       inkscape:transform-center-y="-216.72333"
       inkscape:transform-center-x="116.83402"
       sodipodi:linespacing="125%"
       id="text3882"
       style="font-size:24px;font-style:normal;font-variant:normal;font-weight:normal;font-stretch:normal;text-align:start;line-height:125%;letter-spacing:0px;word-spacing:0px;writing-mode:lr-tb;text-anchor:start;fill:#ffffff;fill-opacity:1;stroke:none;font-family:vtks distress;-inkscape-font-specification:vtks distress"
       xml:space="preserve"><textPath
         id="textPath3888"
         xlink:href="#path3858"><tspan
   style="font-style:normal;font-variant:normal;font-weight:normal;font-stretch:normal;fill:#ffffff;font-family:vtks distress;-inkscape-font-specification:vtks distress"
   id="tspan3884"><tspan
     style="font-style:normal;font-variant:normal;font-weight:normal;font-stretch:normal;fill:#ffffff;font-family:vtks distress;-inkscape-font-specification:vtks distress"
     x="199"
     y="438.38882"
     id="tspan3886">software and internet freedom</tspan></tspan></textPath></text>
  </g>
  <rect
     y="12.362183"
     x="-885.58685"
     height="1031.4286"
     width="720"
     id="rect3975"
     style="fill:#0197fd;fill-opacity:1;fill-rule:nonzero;stroke:none"
     inkscape:export-filename="C:\Users\manoj\Pictures\daily\mysketch book\cals2.png"
     inkscape:export-xdpi="200"
     inkscape:export-ydpi="200" />
  <g
     id="g3950"
     transform="matrix(0.51286972,0,0,0.51286972,-699.48011,91.975087)"
     inkscape:export-filename="C:\Users\manoj\Pictures\daily\mysketch book\cals2.png"
     inkscape:export-xdpi="200"
     inkscape:export-ydpi="200">
    <rect
       ry="5.4164543"
       y="39.505047"
       x="221.42854"
       height="222.87965"
       width="299.99997"
       id="rect3902"
       style="fill:#f9f9f9;fill-opacity:1;fill-rule:nonzero;stroke:none" />
    <g
       transform="translate(0,-0.53571428)"
       id="g3924">
      <rect
         style="fill:#ff9955;fill-opacity:1;fill-rule:nonzero;stroke:none"
         id="rect3904"
         width="300"
         height="17.857143"
         x="221.42857"
         y="40.21933"
         ry="5.1492238" />
      <rect
         ry="0.13111819"
         y="65.576469"
         x="221.42857"
         height="7.1428576"
         width="300"
         id="rect3906"
         style="fill:#ffffff;fill-opacity:1;fill-rule:nonzero;stroke:none;filter:url(#filter3920)"
         transform="matrix(0.96984611,0,0,0.86955741,11.369374,-10.335731)" />
    </g>
    <path
       transform="translate(32.142857,-0.71428571)"
       sodipodi:open="true"
       sodipodi:end="7.0034029"
       sodipodi:start="0.72801893"
       d="m 482.08256,53.011261 c -1.64056,1.840523 -4.46254,2.002624 -6.30306,0.362062 -1.84052,-1.640562 -2.00262,-4.46254 -0.36206,-6.303063 1.64056,-1.840524 4.46254,-2.002625 6.30306,-0.362063 1.83038,1.63152 2.00233,4.433924 0.38514,6.276975"
       sodipodi:ry="4.4642859"
       sodipodi:rx="4.4642859"
       sodipodi:cy="50.04076"
       sodipodi:cx="478.75"
       id="path3928"
       style="fill:#008080;fill-opacity:1;fill-rule:nonzero;stroke:none"
       sodipodi:type="arc" />
    <path
       sodipodi:type="arc"
       style="fill:#ff6600;fill-opacity:1;fill-rule:nonzero;stroke:none"
       id="path3930"
       sodipodi:cx="478.75"
       sodipodi:cy="50.04076"
       sodipodi:rx="4.4642859"
       sodipodi:ry="4.4642859"
       d="m 482.08256,53.011261 c -1.64056,1.840523 -4.46254,2.002624 -6.30306,0.362062 -1.84052,-1.640562 -2.00262,-4.46254 -0.36206,-6.303063 1.64056,-1.840524 4.46254,-2.002625 6.30306,-0.362063 1.83038,1.63152 2.00233,4.433924 0.38514,6.276975"
       sodipodi:start="0.72801893"
       sodipodi:end="7.0034029"
       sodipodi:open="true"
       transform="translate(17.857143,-0.71428571)" />
    <path
       transform="translate(3.5714288,-0.71428571)"
       sodipodi:open="true"
       sodipodi:end="7.0034029"
       sodipodi:start="0.72801893"
       d="m 482.08256,53.011261 c -1.64056,1.840523 -4.46254,2.002624 -6.30306,0.362062 -1.84052,-1.640562 -2.00262,-4.46254 -0.36206,-6.303063 1.64056,-1.840524 4.46254,-2.002625 6.30306,-0.362063 1.83038,1.63152 2.00233,4.433924 0.38514,6.276975"
       sodipodi:ry="4.4642859"
       sodipodi:rx="4.4642859"
       sodipodi:cy="50.04076"
       sodipodi:cx="478.75"
       id="path3932"
       style="fill:#ff2a2a;fill-opacity:1;fill-rule:nonzero;stroke:none"
       sodipodi:type="arc" />
    <rect
       ry="10.924853"
       y="102.36218"
       x="235"
       height="141.18826"
       width="64.285713"
       id="rect3934"
       style="fill:#ffccaa;fill-opacity:1;fill-rule:nonzero;stroke:none" />
    <rect
       ry="2.5"
       y="121.29076"
       x="346.42856"
       height="5"
       width="154.28572"
       id="rect3936"
       style="fill:#d38d5f;fill-opacity:1;fill-rule:nonzero;stroke:none" />
    <rect
       ry="2.5"
       y="210.93361"
       x="347.14285"
       height="5.7142859"
       width="152.14285"
       id="rect3938"
       style="fill:#ff8080;fill-opacity:1;fill-rule:nonzero;stroke:none" />
    <rect
       ry="2.5050068"
       y="229.1479"
       x="348.21426"
       height="5.0100136"
       width="152.14287"
       id="rect3940"
       style="fill:#de8787;fill-opacity:1;fill-rule:nonzero;stroke:none" />
    <rect
       ry="2.625"
       y="69.505043"
       x="237.14285"
       height="15"
       width="52.857143"
       id="rect3942"
       style="fill:#de8787;fill-opacity:1;fill-rule:nonzero;stroke:none" />
    <rect
       ry="2.2826087"
       y="69.505043"
       x="303.57144"
       height="15"
       width="47.85714"
       id="rect3944"
       style="fill:#a05a2c;fill-opacity:1;fill-rule:nonzero;stroke:none" />
    <rect
       ry="2.625"
       y="69.505043"
       x="368.57141"
       height="15"
       width="48.571426"
       id="rect3946"
       style="fill:#6c5353;fill-opacity:1;fill-rule:nonzero;stroke:none" />
    <rect
       ry="0"
       y="148.07648"
       x="351.42856"
       height="38.57143"
       width="35.714287"
       id="rect3948"
       style="fill:#de8787;fill-opacity:1;fill-rule:nonzero;stroke:none" />
  </g>
  <path
     style="opacity:0.65543075;fill:#ffff00;stroke:none"
     d="m -519.2184,187.73474 -166.71174,71.28988 1.04672,105.42368 117.1777,-0.25254 66.78054,-176.50048 z"
     id="path3967"
     inkscape:connector-curvature="0"
     sodipodi:nodetypes="cccccc"
     inkscape:export-filename="C:\Users\manoj\Pictures\daily\mysketch book\cals2.png"
     inkscape:export-xdpi="200"
     inkscape:export-ydpi="200" />
  <rect
     style="fill:#ffffff;fill-opacity:1;fill-rule:nonzero;stroke:none"
     id="rect3969"
     width="117.68276"
     height="105.56095"
     x="-685.89355"
     y="258.88736"
     ry="0"
     inkscape:export-filename="C:\Users\manoj\Pictures\daily\mysketch book\cals2.png"
     inkscape:export-xdpi="200"
     inkscape:export-ydpi="200" />
  <path
     style="opacity:0.41573032;fill:#d4aa00;stroke:none"
     d="m -568.71588,259.39244 67.77492,-71.69715 -66.73319,176.77669 z"
     id="path3971"
     inkscape:connector-curvature="0"
     sodipodi:nodetypes="cccc"
     inkscape:export-filename="C:\Users\manoj\Pictures\daily\mysketch book\cals2.png"
     inkscape:export-xdpi="200"
     inkscape:export-ydpi="200" />
  <g
     id="g4008"
     transform="translate(322.23866,-125.25891)"
     inkscape:export-filename="C:\Users\manoj\Pictures\daily\mysketch book\cals2.png"
     inkscape:export-xdpi="200"
     inkscape:export-ydpi="200">
    <g
       transform="matrix(0.93608981,0,0,0.93608981,-50.24339,27.617622)"
       id="g3998">
      <g
         id="g3985"
         transform="matrix(0.52362042,0,0,0.52362042,-374.50873,205.85873)">
        <path
           sodipodi:nodetypes="ccccc"
           inkscape:connector-curvature="0"
           id="path3981"
           d="M -432.34529,494.75798 -706.09662,700.8291 -491.94429,875.58549 -367.69552,551.32652 z"
           style="fill:#f4d7d7;stroke:none" />
        <path
           sodipodi:open="true"
           sodipodi:end="7.0034029"
           sodipodi:start="0.72801893"
           d="m -373.41427,564.06258 c -17.07597,19.1573 -46.44884,20.84455 -65.60614,3.76857 -19.1573,-17.07597 -20.84454,-46.44884 -3.76857,-65.60614 17.07598,-19.15729 46.44885,-20.84454 65.60614,-3.76856 19.0517,16.98185 20.84143,46.15099 4.00872,65.33459"
           sodipodi:ry="46.467018"
           sodipodi:rx="46.467018"
           sodipodi:cy="533.1438"
           sodipodi:cx="-408.10162"
           id="path3977"
           style="fill:#fd3301;fill-opacity:1;fill-rule:nonzero;stroke:none"
           sodipodi:type="arc" />
        <path
           sodipodi:open="true"
           sodipodi:end="7.0034029"
           sodipodi:start="0.72801893"
           d="m -508.34646,898.30332 c -51.59914,57.88836 -140.35629,62.98677 -198.24464,11.38763 -57.88836,-51.59914 -62.98677,-140.35629 -11.38763,-198.24464 51.59914,-57.88835 140.35629,-62.98677 198.24464,-11.38763 57.56927,51.31473 62.97735,139.45626 12.1133,197.4241"
           sodipodi:ry="140.41121"
           sodipodi:rx="140.41121"
           sodipodi:cy="804.87482"
           sodipodi:cx="-613.1626"
           id="path3979"
           style="fill:#333333;fill-opacity:1;fill-rule:nonzero;stroke:none"
           sodipodi:type="arc" />
      </g>
      <g
         id="g3990"
         transform="matrix(0.48830396,0.39871777,-0.44611907,0.4364204,-34.799785,408.355)">
        <path
           style="fill:#f4d7d7;stroke:none"
           d="m -614.05014,638.57564 -142.28113,107.55218 106.87141,96.93263 71.38632,-175.26007 z"
           id="path3992"
           inkscape:connector-curvature="0"
           sodipodi:nodetypes="ccccc" />
        <path
           sodipodi:type="arc"
           style="fill:#fd3301;fill-opacity:1;fill-rule:nonzero;stroke:none"
           id="path3994"
           sodipodi:cx="-408.10162"
           sodipodi:cy="533.1438"
           sodipodi:rx="46.467018"
           sodipodi:ry="46.467018"
           d="m -373.41427,564.06258 c -17.07597,19.1573 -46.44884,20.84455 -65.60614,3.76857 -19.1573,-17.07597 -20.84454,-46.44884 -3.76857,-65.60614 17.07598,-19.15729 46.44885,-20.84454 65.60614,-3.76856 19.0517,16.98185 20.84143,46.15099 4.00872,65.33459"
           sodipodi:start="0.72801893"
           sodipodi:end="7.0034029"
           sodipodi:open="true"
           transform="matrix(0.50252963,0.02347941,0.02347941,0.50677824,-408.23677,398.76334)" />
        <path
           sodipodi:type="arc"
           style="fill:#333333;fill-opacity:1;fill-rule:nonzero;stroke:none"
           id="path3996"
           sodipodi:cx="-613.1626"
           sodipodi:cy="804.87482"
           sodipodi:rx="140.41121"
           sodipodi:ry="140.41121"
           d="m -508.34646,898.30332 c -51.59914,57.88836 -140.35629,62.98677 -198.24464,11.38763 -57.88836,-51.59914 -62.98677,-140.35629 -11.38763,-198.24464 51.59914,-57.88835 140.35629,-62.98677 198.24464,-11.38763 57.56927,51.31473 62.97735,139.45626 12.1133,197.4241"
           sodipodi:start="0.72801893"
           sodipodi:end="7.0034029"
           sodipodi:open="true"
           transform="matrix(0.49811714,0.02330003,0.02330003,0.50233329,-424.57687,413.85117)" />
      </g>
    </g>
  </g>
</svg>
